<svg xmlns="http://www.w3.org/2000/svg" width="21" height="20" viewBox="0 0 21 20" fill="none">
  <path d="M17.375 3.75H3.625C3.45924 3.75 3.30027 3.81585 3.18306 3.93306C3.06585 4.05027 3 4.20924 3 4.375C3 4.54076 3.06585 4.69973 3.18306 4.81694C3.30027 4.93415 3.45924 5 3.625 5H4.25V16.25C4.25 16.5815 4.3817 16.8995 4.61612 17.1339C4.85054 17.3683 5.16848 17.5 5.5 17.5H15.5C15.8315 17.5 16.1495 17.3683 16.3839 17.1339C16.6183 16.8995 16.75 16.5815 16.75 16.25V5H17.375C17.5408 5 17.6997 4.93415 17.8169 4.81694C17.9342 4.69973 18 4.54076 18 4.375C18 4.20924 17.9342 4.05027 17.8169 3.93306C17.6997 3.81585 17.5408 3.75 17.375 3.75ZM15.5 16.25H5.5V5H15.5V16.25ZM6.75 1.875C6.75 1.70924 6.81585 1.55027 6.93306 1.43306C7.05027 1.31585 7.20924 1.25 7.375 1.25H13.625C13.7908 1.25 13.9497 1.31585 14.0669 1.43306C14.1842 1.55027 14.25 1.70924 14.25 1.875C14.25 2.04076 14.1842 2.19973 14.0669 2.31694C13.9497 2.43415 13.7908 2.5 13.625 2.5H7.375C7.20924 2.5 7.05027 2.43415 6.93306 2.31694C6.81585 2.19973 6.75 2.04076 6.75 1.875Z" fill="#FF3333"/>
</svg>